<?xml version="1.0" encoding="UTF-8"?>
<svg xmlns="http://www.w3.org/2000/svg" xmlns:xlink="http://www.w3.org/1999/xlink" width="375pt" height="374.999991pt" viewBox="0 0 375 374.999991" version="1.2">
<g id="surface1">
<path style=" stroke:none;fill-rule:nonzero;fill:rgb(18.429565%,76.469421%,38.819885%);fill-opacity:1;" d="M 188.007812 2.523438 C 166.871094 2.523438 37.097656 76.792969 26.601562 95.011719 C 16.101562 113.230469 16.039062 261.78125 26.601562 279.988281 C 37.160156 298.191406 166.902344 372.476562 188.007812 372.476562 C 209.109375 372.476562 338.851562 298.117188 349.429688 279.988281 C 359.988281 261.859375 359.988281 113.046875 349.429688 95.011719 C 338.851562 76.976562 209.125 2.523438 188.007812 2.523438 Z M 231.738281 301.800781 L 231.738281 301.832031 C 228.84375 301.832031 201.890625 275.980469 204.03125 273.867188 C 204.660156 273.234375 208.585938 272.804688 216.835938 272.542969 C 216.835938 253.582031 217.265625 222.984375 217.527344 210.175781 C 217.558594 208.710938 217.207031 207.691406 217.207031 205.953125 L 158.914062 205.953125 C 158.914062 211.085938 158.574219 232.109375 159.914062 258.609375 C 160.085938 261.890625 158.761719 262.910156 155.726562 262.894531 C 148.339844 262.878906 140.953125 262.816406 133.5625 262.832031 C 130.578125 262.832031 129.285156 261.722656 129.375 258.421875 C 130.039062 234.269531 131.53125 197.71875 129.269531 104.753906 L 129.269531 102.457031 C 122.1875 102.210938 117.292969 101.765625 116.644531 101.132812 C 114.523438 99.019531 141.84375 73.167969 144.722656 73.167969 C 147.601562 73.167969 174.753906 99.019531 172.628906 101.132812 C 171.996094 101.765625 166.871094 102.210938 160.390625 102.457031 L 160.390625 104.738281 C 158.636719 123.34375 158.914062 162.25 158.484375 180.886719 L 217.019531 180.886719 C 217.019531 177.605469 217.296875 155.792969 216.144531 120.445312 C 216.066406 117.996094 216.851562 116.714844 219.207031 116.683594 C 227.289062 116.625 235.355469 116.59375 243.449219 116.640625 C 245.976562 116.65625 246.773438 117.886719 246.730469 120.523438 C 244.066406 258.746094 246.25 249.097656 246.25 272.511719 C 252.714844 272.757812 258.519531 273.207031 259.152344 273.835938 C 261.242188 275.933594 234.628906 301.800781 231.738281 301.800781 Z M 231.738281 301.800781 "/>
</g>
</svg>
