<?xml version="1.0" encoding="UTF-8"?>
<svg xmlns="http://www.w3.org/2000/svg" xmlns:xlink="http://www.w3.org/1999/xlink" width="375pt" height="374.999991pt" viewBox="0 0 375 374.999991" version="1.2">
<defs>
<clipPath id="clip1">
  <path d="M 81 0 L 293 0 L 293 374.714844 L 81 374.714844 Z M 81 0 "/>
</clipPath>
</defs>
<g id="surface1">
<g clip-path="url(#clip1)" clip-rule="nonzero">
<path style=" stroke:none;fill-rule:nonzero;fill:rgb(20.779419%,70.979309%,88.62915%);fill-opacity:1;" d="M 124.214844 -0.0976562 L 86.644531 -0.0976562 C 83 -0.0976562 81.199219 1.746094 81.199219 5.398438 L 81.199219 369.203125 C 81.199219 372.871094 83 374.699219 86.644531 374.699219 L 124.230469 374.699219 C 127.859375 374.699219 129.691406 372.871094 129.691406 369.203125 L 129.691406 289.398438 L 152.027344 267.941406 L 232.09375 370.859375 C 234.238281 373.433594 236.773438 374.714844 239.683594 374.714844 L 288.160156 374.714844 C 290.699219 374.714844 292.152344 373.980469 292.511719 372.511719 L 291.417969 367 L 185.777344 234.347656 L 287.066406 135.289062 C 288.960938 133.351562 288.285156 127.589844 283.246094 127.589844 L 233.140625 127.589844 C 230.605469 127.589844 228.070312 128.886719 225.519531 131.445312 L 129.675781 229.414062 L 129.675781 5.398438 C 129.675781 1.746094 127.84375 -0.0976562 124.214844 -0.0976562 Z M 124.214844 -0.0976562 "/>
</g>
</g>
</svg>
