<?xml version="1.0" encoding="UTF-8"?>
<svg xmlns="http://www.w3.org/2000/svg" xmlns:xlink="http://www.w3.org/1999/xlink" width="375pt" height="374.999991pt" viewBox="0 0 375 374.999991" version="1.2">
<g id="surface1">
<path style=" stroke:none;fill-rule:nonzero;fill:rgb(0.389099%,46.669006%,70.979309%);fill-opacity:1;" d="M 347.226562 0.0117188 L 27.679688 0.0117188 C 12.421875 0.0117188 0 12.117188 0 27.023438 L 0 347.929688 C 0 362.871094 12.421875 375 27.679688 375 L 347.25 375 C 362.542969 375 375 362.871094 375 347.929688 L 375 27.023438 C 375 12.117188 362.542969 0.0117188 347.226562 0.0117188 Z M 347.226562 0.0117188 "/>
<path style=" stroke:none;fill-rule:nonzero;fill:rgb(100%,100%,100%);fill-opacity:1;" d="M 55.605469 140.589844 L 111.328125 140.589844 L 111.328125 319.535156 L 55.605469 319.535156 Z M 83.425781 51.527344 C 101.203125 51.527344 115.652344 65.976562 115.652344 83.753906 C 115.652344 101.53125 101.203125 116.015625 83.4375 116.015625 C 82.382812 116.011719 81.328125 115.960938 80.277344 115.855469 C 79.226562 115.75 78.183594 115.59375 77.148438 115.382812 C 76.113281 115.175781 75.089844 114.917969 74.078125 114.609375 C 73.070312 114.304688 72.074219 113.945312 71.101562 113.542969 C 70.125 113.136719 69.171875 112.683594 68.242188 112.1875 C 67.308594 111.6875 66.40625 111.144531 65.527344 110.558594 C 64.648438 109.96875 63.800781 109.339844 62.984375 108.671875 C 62.167969 108 61.386719 107.292969 60.640625 106.546875 C 59.894531 105.800781 59.1875 105.019531 58.515625 104.203125 C 57.84375 103.386719 57.214844 102.539062 56.628906 101.660156 C 56.042969 100.785156 55.5 99.878906 55 98.949219 C 54.5 98.019531 54.046875 97.066406 53.644531 96.089844 C 53.238281 95.113281 52.878906 94.121094 52.570312 93.113281 C 52.265625 92.101562 52.003906 91.078125 51.796875 90.042969 C 51.589844 89.007812 51.433594 87.964844 51.328125 86.914062 C 51.222656 85.863281 51.167969 84.808594 51.164062 83.753906 C 51.164062 82.699219 51.214844 81.644531 51.320312 80.59375 C 51.421875 79.542969 51.578125 78.5 51.785156 77.460938 C 51.992188 76.425781 52.246094 75.402344 52.554688 74.394531 C 52.859375 73.382812 53.214844 72.390625 53.621094 71.414062 C 54.023438 70.4375 54.476562 69.484375 54.972656 68.550781 C 55.472656 67.621094 56.015625 66.714844 56.601562 65.839844 C 57.191406 64.960938 57.820312 64.113281 58.488281 63.296875 C 59.160156 62.480469 59.867188 61.699219 60.617188 60.953125 C 61.363281 60.207031 62.144531 59.5 62.960938 58.828125 C 63.777344 58.160156 64.625 57.53125 65.503906 56.945312 C 66.382812 56.359375 67.289062 55.820312 68.21875 55.320312 C 69.152344 54.824219 70.105469 54.375 71.082031 53.96875 C 72.058594 53.566406 73.050781 53.210938 74.0625 52.90625 C 75.074219 52.601562 76.097656 52.34375 77.132812 52.140625 C 78.167969 51.933594 79.214844 51.78125 80.265625 51.679688 C 81.316406 51.578125 82.371094 51.527344 83.425781 51.527344 M 146.121094 140.589844 L 199.464844 140.589844 L 199.464844 165.046875 L 200.203125 165.046875 C 207.632812 150.984375 225.773438 136.148438 252.9375 136.148438 C 309.257812 136.148438 319.652344 173.214844 319.652344 221.390625 L 319.652344 319.546875 L 264.070312 319.546875 L 264.070312 232.5 C 264.070312 211.757812 263.695312 185.039062 235.171875 185.039062 C 206.226562 185.039062 201.773438 207.65625 201.773438 230.976562 L 201.773438 319.5 L 146.203125 319.5 L 146.203125 140.554688 Z M 146.121094 140.589844 "/>
</g>
</svg>
