<?xml version="1.0" encoding="UTF-8"?>
<svg xmlns="http://www.w3.org/2000/svg" xmlns:xlink="http://www.w3.org/1999/xlink" width="375pt" height="374.999991pt" viewBox="0 0 375 374.999991" version="1.2">
<defs>
<clipPath id="clip1">
  <path d="M 37.5 240 L 339 240 L 339 375 L 37.5 375 Z M 37.5 240 "/>
</clipPath>
<clipPath id="clip2">
  <path d="M 103 0 L 354.75 0 L 354.75 308 L 103 308 Z M 103 0 "/>
</clipPath>
</defs>
<g id="surface1">
<g clip-path="url(#clip1)" clip-rule="nonzero">
<path style=" stroke:none;fill-rule:nonzero;fill:rgb(73.728943%,73.329163%,73.329163%);fill-opacity:1;" d="M 338.09375 374.101562 L 37.207031 374.101562 L 37.207031 240.703125 L 70.535156 240.703125 L 70.535156 340.867188 L 304.308594 340.867188 L 304.308594 240.703125 L 338.09375 240.703125 Z M 338.09375 374.101562 "/>
</g>
<g clip-path="url(#clip2)" clip-rule="nonzero">
<path style=" stroke:none;fill-rule:nonzero;fill:rgb(95.689392%,50.19989%,14.118958%);fill-opacity:1;" d="M 107.515625 231.59375 L 271.4375 265.738281 L 278.289062 232.960938 L 114.371094 198.816406 Z M 128.976562 153.28125 L 280.5625 223.835938 L 294.714844 193.792969 L 143.128906 122.773438 Z M 170.984375 79.074219 L 299.726562 185.605469 L 321.1875 160.105469 L 192.445312 53.574219 Z M 254.101562 0.308594 L 227.15625 20.339844 L 327.152344 154.207031 L 354.09375 134.171875 Z M 103.875 307.167969 L 270.96875 307.167969 L 270.96875 273.9375 L 103.875 273.9375 Z M 103.875 307.167969 "/>
</g>
</g>
</svg>
