<?xml version="1.0" encoding="UTF-8"?>
<svg xmlns="http://www.w3.org/2000/svg" xmlns:xlink="http://www.w3.org/1999/xlink" width="375pt" height="374.999991pt" viewBox="0 0 375 374.999991" version="1.2">
<defs>
<clipPath id="clip1">
  <path d="M 0 27.273438 L 375 27.273438 L 375 336 L 0 336 Z M 0 27.273438 "/>
</clipPath>
</defs>
<g id="surface1">
<g clip-path="url(#clip1)" clip-rule="nonzero">
<path style=" stroke:none;fill-rule:nonzero;fill:rgb(19.999695%,79.998779%,100%);fill-opacity:1;" d="M 373.464844 64.554688 C 361.570312 69.929688 348.421875 73.191406 335.59375 75.34375 C 341.679688 74.320312 350.625 63.300781 354.210938 58.84375 C 359.679688 52.050781 364.222656 44.304688 366.777344 35.9375 C 367.113281 35.285156 367.351562 34.46875 366.695312 33.972656 C 365.871094 33.644531 365.34375 33.8125 364.691406 34.140625 C 350.371094 41.8125 335.558594 47.371094 319.785156 51.3125 C 318.484375 51.636719 317.507812 51.3125 316.691406 50.492188 C 315.382812 49.019531 314.15625 47.625 312.765625 46.480469 C 306.140625 40.84375 299.03125 36.425781 291.015625 33.160156 C 280.492188 28.875 268.992188 27.058594 257.65625 27.792969 C 246.625 28.507812 235.796875 31.613281 226.007812 36.722656 C 216.203125 41.84375 207.445312 48.972656 200.472656 57.566406 C 193.269531 66.457031 187.957031 76.953125 185.230469 88.085938 C 182.605469 98.824219 182.816406 109.449219 184.421875 120.304688 C 184.664062 122.105469 184.503906 122.347656 182.875 122.105469 C 121.203125 112.9375 70.085938 90.882812 28.585938 43.628906 C 26.789062 41.574219 25.808594 41.574219 24.332031 43.78125 C 6.171875 70.984375 14.984375 114.679688 37.667969 136.160156 C 40.695312 139.027344 43.800781 141.886719 47.148438 144.496094 C 45.929688 144.75 30.832031 143.117188 17.378906 136.160156 C 15.578125 135.019531 14.671875 135.671875 14.511719 137.71875 C 14.34375 140.65625 14.597656 143.363281 15.003906 146.550781 C 18.484375 174.121094 37.589844 199.625 63.765625 209.578125 C 66.871094 210.882812 70.304688 212.027344 73.652344 212.601562 C 67.691406 213.90625 61.550781 214.839844 44.453125 213.5 C 42.328125 213.09375 41.515625 214.160156 42.328125 216.199219 C 55.175781 251.191406 82.90625 261.609375 103.675781 267.539062 C 106.457031 268.027344 109.238281 268.027344 112.03125 268.679688 C 111.859375 268.929688 111.695312 268.929688 111.53125 269.171875 C 104.644531 279.667969 80.765625 287.476562 69.636719 291.363281 C 49.40625 298.429688 27.382812 301.605469 6.003906 299.503906 C 2.582031 298.996094 1.863281 299.039062 0.9375 299.503906 C -0.00390625 300.082031 0.816406 300.902344 1.917969 301.78125 C 6.253906 304.648438 10.671875 307.1875 15.167969 309.636719 C 28.746094 316.828125 42.902344 322.558594 57.703125 326.640625 C 134.148438 347.738281 220.253906 332.234375 277.652344 275.246094 C 322.726562 230.492188 338.527344 168.773438 338.527344 106.976562 C 338.527344 104.558594 341.378906 103.222656 343.078125 101.945312 C 354.808594 93.140625 364.269531 82.601562 373.015625 70.835938 C 374.976562 68.195312 375 65.84375 375 64.875 C 375 64.710938 375 64.554688 375 64.554688 C 375 63.566406 374.976562 63.863281 373.464844 64.554688 "/>
</g>
</g>
</svg>
